<?xml version="1.0" standalone="no"?>
<!DOCTYPE svg PUBLIC "-//W3C//DTD SVG 20010904//EN"
 "http://www.w3.org/TR/2001/REC-SVG-20010904/DTD/svg10.dtd">
<svg version="1.0" xmlns="http://www.w3.org/2000/svg"
 width="512.000000pt" height="512.000000pt" viewBox="0 0 512.000000 512.000000"
 preserveAspectRatio="xMidYMid meet">

<g transform="translate(0.000000,512.000000) scale(0.100000,-0.100000)"
fill="#AE7C78" stroke="none">
<path d="M3250 5114 c-46 -9 -145 -47 -185 -72 -22 -13 -350 -333 -729 -711
l-688 -686 6 50 c27 224 15 328 -57 475 -57 117 -168 229 -284 287 -102 51
-213 78 -287 69 -112 -14 -230 -97 -281 -196 -24 -47 -514 -2099 -535 -2239
-69 -464 64 -955 358 -1326 72 -90 316 -339 412 -420 195 -163 431 -274 685
-321 133 -25 390 -25 523 0 126 23 279 74 393 131 216 109 195 90 1266 1159
975 975 992 992 1027 1068 71 148 71 301 0 449 -42 86 -135 184 -214 224 -30
15 -57 29 -59 31 -2 2 38 48 90 101 133 137 179 238 179 393 0 188 -92 350
-254 444 -36 21 -66 40 -66 41 0 2 16 22 36 46 75 90 114 201 114 323 0 45 -6
104 -14 131 -45 172 -174 306 -341 357 -164 51 -366 9 -486 -99 -22 -20 -41
-34 -43 -32 -2 2 -14 26 -27 53 -13 28 -48 76 -77 107 -98 107 -207 158 -352
164 -47 2 -96 2 -110 -1z m151 -305 c107 -36 168 -150 139 -259 -10 -41 -68
-102 -630 -665 -340 -341 -625 -634 -634 -652 -43 -85 8 -192 100 -209 90 -17
44 -57 899 796 435 433 804 795 820 803 108 54 233 11 289 -100 21 -41 21
-135 0 -176 -9 -18 -371 -387 -804 -822 -716 -717 -790 -794 -800 -834 -21
-80 25 -158 107 -180 19 -6 40 -8 46 -6 7 2 26 6 42 10 22 5 188 164 655 630
679 676 650 652 756 643 138 -12 224 -162 169 -296 -11 -26 -204 -226 -629
-652 -338 -338 -619 -625 -625 -637 -16 -31 -14 -99 4 -133 29 -56 96 -87 163
-75 32 6 87 57 427 395 215 213 406 396 425 406 22 11 57 18 95 19 121 0 210
-89 210 -210 -1 -37 -8 -73 -19 -95 -10 -19 -448 -465 -974 -991 -1020 -1019
-1017 -1015 -1205 -1104 -395 -187 -871 -138 -1211 124 -101 78 -419 412 -479
503 -112 170 -184 350 -223 553 -21 107 -24 355 -6 461 6 38 122 536 257 1105
266 1127 252 1078 319 1065 101 -21 204 -103 251 -201 42 -89 41 -138 -5 -475
-23 -168 -40 -324 -37 -347 9 -84 86 -141 171 -128 38 6 99 65 901 864 665
664 868 860 895 868 48 15 100 15 141 2z"/>
<path d="M1800 2590 c-230 -35 -429 -224 -510 -485 -66 -217 -66 -510 1 -855
33 -170 60 -196 241 -231 612 -118 1036 -19 1242 291 74 111 106 288 75 419
-45 196 -211 341 -414 360 l-70 6 -6 70 c-19 198 -150 356 -339 408 -74 21
-154 27 -220 17z m156 -311 c98 -30 129 -149 79 -303 -16 -49 -23 -87 -19
-104 27 -111 117 -149 242 -102 63 24 170 27 212 5 16 -8 41 -31 57 -51 22
-30 28 -49 31 -104 4 -57 0 -74 -22 -119 -52 -101 -153 -171 -302 -208 -100
-25 -379 -24 -535 1 l-117 18 -17 107 c-9 58 -19 171 -22 251 -10 285 51 475
182 569 77 56 142 67 231 40z"/>
</g>
</svg>
