<?xml version="1.0" standalone="no"?>
<!DOCTYPE svg PUBLIC "-//W3C//DTD SVG 20010904//EN"
 "http://www.w3.org/TR/2001/REC-SVG-20010904/DTD/svg10.dtd">
<svg version="1.0" xmlns="http://www.w3.org/2000/svg"
 width="512.000000pt" height="512.000000pt" viewBox="0 0 512.000000 512.000000"
 preserveAspectRatio="xMidYMid meet">

<g transform="translate(0.000000,512.000000) scale(0.100000,-0.100000)"
fill="#AE7C78" stroke="none">
<path d="M400 4633 c-44 -7 -144 -45 -184 -71 -97 -61 -181 -184 -205 -300
-16 -75 -16 -3329 0 -3404 17 -80 62 -168 117 -225 59 -62 107 -93 192 -124
l65 -24 2175 0 c2105 0 2177 1 2230 19 163 56 285 191 319 354 16 75 16 3329
0 3404 -33 159 -148 290 -308 352 l-56 21 -2160 1 c-1188 1 -2171 0 -2185 -3z
m4316 -312 c38 -17 94 -75 94 -97 0 -12 -1328 -1340 -1333 -1334 -3 3 -13 25
-24 50 -30 66 -104 159 -167 208 -112 86 -246 132 -386 132 -103 0 -182 -19
-272 -64 l-68 -34 -68 34 c-168 85 -363 87 -537 5 -126 -59 -238 -169 -288
-281 -11 -25 -21 -47 -24 -50 -5 -6 -1333 1322 -1333 1334 0 22 56 80 94 97
40 18 112 19 2156 19 2044 0 2116 -1 2156 -19z m-3794 -2383 l-622 -623 0
1245 0 1245 622 -623 623 -622 -623 -622z m3898 620 l0 -1243 -622 622 -623
623 620 620 c341 341 621 620 622 620 2 0 3 -559 3 -1242z m-2473 394 c23 -12
65 -42 93 -67 86 -77 157 -74 251 10 77 68 135 89 233 83 113 -8 207 -68 256
-165 22 -42 25 -61 25 -148 0 -110 -17 -165 -86 -282 -44 -74 -202 -232 -307
-306 -98 -71 -230 -147 -253 -147 -25 0 -216 118 -310 192 -148 115 -253 242
-307 371 -36 85 -38 237 -6 308 30 65 86 123 147 154 47 24 61 26 137 23 62
-3 96 -10 127 -26z m-587 -744 c65 -101 244 -282 360 -368 108 -79 250 -163
342 -201 94 -39 126 -36 252 26 253 123 506 335 641 536 27 41 53 78 57 84 8
9 1398 -1371 1398 -1389 0 -22 -56 -80 -94 -97 -40 -18 -112 -19 -2156 -19
-2044 0 -2116 1 -2156 19 -38 17 -94 75 -94 97 0 9 1381 1394 1390 1394 3 0
30 -37 60 -82z"/>
</g>
</svg>
