<?xml version="1.0" standalone="no"?>
<!DOCTYPE svg PUBLIC "-//W3C//DTD SVG 20010904//EN"
 "http://www.w3.org/TR/2001/REC-SVG-20010904/DTD/svg10.dtd">
<svg version="1.0" xmlns="http://www.w3.org/2000/svg"
 width="512.000000pt" height="512.000000pt" viewBox="0 0 512.000000 512.000000"
 preserveAspectRatio="xMidYMid meet">

<g transform="translate(0.000000,512.000000) scale(0.100000,-0.100000)"
fill="#AE7C78" stroke="none">
<path d="M2390 5105 c-404 -71 -722 -356 -839 -750 -62 -211 -48 -471 35 -669
43 -103 44 -102 -18 -116 -94 -22 -200 -61 -313 -115 -525 -252 -877 -759
-936 -1350 -14 -147 -6 -521 15 -650 58 -365 227 -706 478 -966 115 -119 231
-176 378 -186 206 -14 414 106 502 287 18 39 36 69 40 67 3 -1 169 -141 368
-312 199 -171 378 -318 398 -327 47 -22 77 -22 124 0 20 9 199 156 398 327
199 171 365 311 370 313 4 2 15 -17 25 -41 38 -100 160 -224 265 -269 167 -72
363 -57 510 39 64 43 159 139 241 246 187 242 307 519 355 822 21 129 29 503
15 650 -59 591 -411 1098 -936 1350 -113 54 -219 93 -313 115 -62 14 -61 13
-18 116 38 89 56 166 68 292 51 492 -271 960 -757 1100 -148 43 -309 52 -455
27z m355 -308 c269 -75 478 -288 546 -557 8 -31 14 -105 14 -170 0 -123 -12
-188 -53 -285 -93 -219 -290 -387 -522 -446 -71 -18 -269 -18 -340 0 -232 59
-429 227 -522 446 -41 97 -53 162 -53 285 0 123 12 188 53 285 93 220 305 400
522 444 30 6 64 13 75 15 37 9 229 -3 280 -17z m-855 -1532 c126 -105 266
-174 437 -217 125 -32 341 -32 466 0 172 43 313 113 437 217 l55 46 60 -6 c33
-3 87 -13 120 -21 544 -137 955 -597 1030 -1154 19 -139 19 -439 0 -582 -43
-323 -173 -601 -391 -838 -91 -98 -176 -128 -275 -98 -95 28 -165 133 -157
237 5 72 24 108 101 203 227 280 314 565 262 861 -52 300 -244 548 -505 654
-105 42 -192 55 -330 51 -145 -5 -238 -31 -355 -100 -67 -40 -202 -164 -258
-238 l-27 -35 -27 35 c-56 74 -191 198 -258 238 -117 69 -210 95 -355 100
-235 7 -406 -54 -572 -207 -214 -197 -319 -531 -262 -831 35 -188 114 -345
274 -543 67 -83 90 -136 90 -206 0 -94 -72 -194 -159 -220 -99 -29 -184 2
-275 99 -218 237 -348 515 -391 838 -19 143 -19 443 0 582 75 557 486 1017
1030 1154 145 36 170 34 235 -19z m138 -963 c153 -48 281 -185 364 -391 23
-59 50 -106 68 -123 59 -54 141 -54 200 0 18 17 45 64 68 123 110 271 281 409
507 409 308 0 532 -266 512 -609 -14 -240 -143 -442 -483 -755 -154 -143 -691
-601 -704 -601 -10 0 -469 389 -650 551 -385 345 -540 586 -540 841 0 258 142
476 358 550 87 29 214 31 300 5z"/>
</g>
</svg>
