<?xml version="1.0" standalone="no"?>
<!DOCTYPE svg PUBLIC "-//W3C//DTD SVG 20010904//EN"
 "http://www.w3.org/TR/2001/REC-SVG-20010904/DTD/svg10.dtd">
<svg version="1.0" xmlns="http://www.w3.org/2000/svg"
 width="512.000000pt" height="512.000000pt" viewBox="0 0 512.000000 512.000000"
 preserveAspectRatio="xMidYMid meet">

<g transform="translate(0.000000,512.000000) scale(0.100000,-0.100000)"
fill="#AE7C78" stroke="#AE7C78" stroke-width="30">
<path d="M3045 4679 c-153 -12 -276 -58 -408 -153 l-73 -52 -54 44 c-63 49
-187 112 -275 139 -48 14 -94 18 -225 18 -145 0 -174 -3 -240 -23 -308 -97
-528 -333 -611 -657 -33 -125 -33 -340 -2 -465 64 -256 212 -489 477 -756 174
-175 341 -310 563 -458 222 -147 329 -206 373 -206 43 0 149 59 350 193 237
158 376 270 559 450 260 257 407 480 487 742 26 83 28 104 28 260 1 148 -2
181 -22 254 -119 437 -489 704 -927 670z m289 -229 c276 -92 466 -371 466
-684 0 -118 -16 -200 -59 -312 -130 -337 -537 -746 -1065 -1069 l-108 -66
-125 77 c-265 163 -476 327 -673 524 -232 231 -355 424 -417 652 -24 87 -24
289 0 378 28 106 98 238 168 313 137 150 289 217 494 217 172 0 301 -51 429
-171 60 -56 84 -72 115 -76 36 -5 42 -1 107 57 87 79 157 124 241 156 120 45
299 47 427 4z"/>
<path d="M2437 3979 c-23 -13 -47 -62 -47 -95 0 -19 13 -39 40 -65 l40 -38 0
-231 c0 -263 6 -250 -91 -199 -75 40 -132 102 -171 186 -27 57 -31 79 -37 189
-6 116 -9 126 -36 165 -60 84 -173 115 -234 63 -59 -50 -33 -150 43 -170 25
-6 26 -10 26 -73 1 -278 190 -526 453 -592 l47 -11 0 -139 0 -139 -25 -10
c-14 -5 -34 -24 -45 -42 -27 -43 -20 -84 20 -120 29 -27 34 -28 141 -28 l111
0 34 34 c43 43 47 94 9 131 -13 14 -29 25 -35 25 -6 0 -10 51 -10 144 l0 145
58 16 c252 73 417 285 430 552 4 100 5 102 31 108 84 21 105 122 37 177 -43
35 -141 15 -199 -40 -50 -47 -60 -78 -67 -207 -5 -100 -11 -130 -33 -177 -43
-95 -149 -193 -230 -213 l-27 -7 0 241 c0 161 3 241 10 241 6 0 22 12 35 26
36 39 34 96 -4 135 -29 29 -31 29 -143 29 -62 0 -121 -5 -131 -11z"/>
</g>
</svg>
